<svg height="500pt" preserveAspectRatio="xMidYMid meet" viewBox="0 0 500 500" width="500pt" xmlns="http://www.w3.org/2000/svg"><g transform="matrix(.1 0 0 -.1 0 500)"><path d="m0 2500v-2500h2500 2500v2500 2500h-2500-2500zm1294 1465c51-115 97-219 102-230 6-13 10 63 12 213l2 232h213 212l194-443c248-565 472-1071 475-1075 2-1 33 64 69 145 36 82 97 218 136 303 38 85 162 360 274 610l205 455 201 3 201 2 2-257 3-258 64 145c35 80 83 186 106 236 24 50 46 101 50 113 6 21 9 21 208 19l202-3 3-1382 2-1383h-160-160v1059c0 675 4 1106 11 1186 10 120 7 171-6 109-20-94-78-243-194-504l-131-294v-778-778h-160-160l-2 414-3 413-184-414-183-414-81 3-81 3-115 258c-63 141-117 257-120 257-6 0-26-43-126-270-26-58-62-138-80-177l-34-73h-78-79l-183 412c-101 227-188 417-192 422-5 6-9-178-9-412v-422h-155-155v779 779l-41 89c-185 399-279 640-279 712 0 11-5 23-11 27-9 5-10-1-4-22 4-16 10-554 12-1196l4-1168h-160-161v1378c0 758 3 1382 7 1386 4 3 101 5 215 4l209-3zm2936-2980v-155h-1730-1730v155 155h1730 1730z"/><path d="m1718 3397 4-402 90-205c49-113 137-312 195-444 58-131 120-279 138-330 18-50 37-90 41-89 5 1 25 47 46 103s54 139 73 185l36 83-272 609c-291 652-298 668-332 803l-22 90z"/><path d="m3280 3770c0-54-90-277-343-846l-276-622 53-123c29-68 63-154 76-192 12-37 26-67 31-67 4 0 13 17 20 38 25 79 111 286 204 492 54 118 126 279 161 358l64 142v243c0 217 11 458 25 560 3 22 1 37-5 37-5 0-10-9-10-20z"/></g></svg>